<?xml version="1.0" standalone="no"?><!DOCTYPE svg PUBLIC "-//W3C//DTD SVG 1.1//EN" "http://www.w3.org/Graphics/SVG/1.1/DTD/svg11.dtd"><svg class="icon" width="200px" height="200.00px" viewBox="0 0 1024 1024" version="1.1" xmlns="http://www.w3.org/2000/svg"><path fill="#0efcff" d="M121.491525 381.830508m-52.067796 0a52.067797 52.067797 0 1 0 104.135593 0 52.067797 52.067797 0 1 0-104.135593 0ZM512 208.271186m-52.067797 0a52.067797 52.067797 0 1 0 104.135594 0 52.067797 52.067797 0 1 0-104.135594 0ZM277.694915 208.271186m-43.38983 0a43.389831 43.389831 0 1 0 86.779661 0 43.389831 43.389831 0 1 0-86.779661 0ZM746.305085 216.949153m-43.389831 0a43.389831 43.389831 0 1 0 86.779661 0 43.389831 43.389831 0 1 0-86.779661 0ZM911.186441 190.915254m-34.711865 0a34.711864 34.711864 0 1 0 69.423729 0 34.711864 34.711864 0 1 0-69.423729 0ZM104.135593 199.59322m-34.711864 0a34.711864 34.711864 0 1 0 69.423729 0 34.711864 34.711864 0 1 0-69.423729 0ZM512 34.711864m-34.711864 0a34.711864 34.711864 0 1 0 69.423728 0 34.711864 34.711864 0 1 0-69.423728 0ZM329.762712 60.745763m-26.033898 0a26.033898 26.033898 0 1 0 52.067796 0 26.033898 26.033898 0 1 0-52.067796 0ZM676.881356 86.779661m-26.033898 0a26.033898 26.033898 0 1 0 52.067796 0 26.033898 26.033898 0 1 0-52.067796 0ZM911.186441 373.152542m-52.067797 0a52.067797 52.067797 0 1 0 104.135593 0 52.067797 52.067797 0 1 0-104.135593 0ZM850.440678 491.693559a208.271186 208.271186 0 0 0-329.762712-157.505084A208.271186 208.271186 0 0 0 191.696271 485.966102 216.949153 216.949153 0 0 0 251.661017 911.186441a212.52339 212.52339 0 0 0 26.988475-1.735594 295.050847 295.050847 0 0 0 466.701016 0 212.52339 212.52339 0 0 0 26.988475 1.735594 216.949153 216.949153 0 0 0 78.101695-419.492882zM772.338983 824.40678a136.157288 136.157288 0 0 1-16.314576-1.041356 74.717288 74.717288 0 0 0-10.760678-0.694238A86.779661 86.779661 0 0 0 676.881356 856.341695a208.271186 208.271186 0 0 1-329.762712 0 86.779661 86.779661 0 0 0-68.555932-33.670509 74.717288 74.717288 0 0 0-10.760678 0.694238A136.157288 136.157288 0 0 1 251.661017 824.40678a130.169492 130.169492 0 0 1-36.013559-255.218983 86.779661 86.779661 0 0 0 62.568135-76.192543A122.012203 122.012203 0 0 1 399.186441 381.830508a120.450169 120.450169 0 0 1 70.812203 22.823051 86.779661 86.779661 0 0 0 101.358644 0A121.491525 121.491525 0 0 1 763.661017 496.466441 86.779661 86.779661 0 0 0 818.939661 572.745763 130.169492 130.169492 0 0 1 772.338983 824.40678zM766.090847 748.908475c2.082712-1.735593 6.334915-4.772881 12.583051-8.677967a82.353898 82.353898 0 0 0 21.781695-20.39322 35.75322 35.75322 0 0 0 5.987797-19.525424 30.286102 30.286102 0 0 0-5.20678-17.355932 30.893559 30.893559 0 0 0-14.405424-11.454915 68.816271 68.816271 0 0 0-25.51322-3.731525 62.568136 62.568136 0 0 0-24.558644 3.905084 30.72 30.72 0 0 0-13.797966 11.281356 49.811525 49.811525 0 0 0-6.682034 19.959322l31.067119 2.51661a22.909831 22.909831 0 0 1 5.12-13.190508 14.318644 14.318644 0 0 1 19.178305 0 11.541695 11.541695 0 0 1 3.818305 8.677966 17.355932 17.355932 0 0 1-3.818305 9.979661 87.560678 87.560678 0 0 1-17.355932 15.44678A128.347119 128.347119 0 0 0 723.742373 754.983051a58.402712 58.402712 0 0 0-9.806102 26.033898H807.050847v-25.339661h-48.42305c2.863729-2.776949 5.03322-5.03322 7.46305-6.768813zM405.781695 708.729492A45.038644 45.038644 0 0 1 374.801356 720.271186a49.724746 49.724746 0 0 1-39.658305-17.963389c-10.15322-11.975593-15.186441-32.195254-15.186441-60.745763q0-39.918644 15.44678-57.882034a50.852881 50.852881 0 0 1 40.352542-17.789831 46.253559 46.253559 0 0 1 47.121356 37.488814l44.691526-10.673898a87.734237 87.734237 0 0 0-22.823051-41.13356 92.854237 92.854237 0 0 0-66.73356-24.298305 98.755254 98.755254 0 0 0-75.758644 30.89356q-28.897627 30.893559-28.897627 86.779661 0 52.848814 28.724068 83.221695a96.151864 96.151864 0 0 0 73.242034 30.459661 95.457627 95.457627 0 0 0 59.357288-17.355933A97.713898 97.713898 0 0 0 468.610169 686.687458l-43.38983-13.884746a66.64678 66.64678 0 0 1-19.438644 35.92678zM590.101695 527.533559a123.053559 123.053559 0 0 0-48.249492 8.677966 86.779661 86.779661 0 0 0-28.897627 20.132882 106.391864 106.391864 0 0 0-20.827118 30.63322 143.44678 143.44678 0 0 0-10.24 57.361356c0 35.666441 9.806102 63.522712 29.505084 83.829153a105.090169 105.090169 0 0 0 79.316611 30.459661 104.656271 104.656271 0 0 0 78.709152-30.546441q29.418305-30.63322 29.418305-84.783729t-29.678644-85.304407A105.176949 105.176949 0 0 0 590.101695 527.533559z m44.691525 173.559322a60.225085 60.225085 0 0 1-88.775593 0q-17.355932-19.525424-17.355932-57.534915c0-26.033898 5.727458-44.951864 17.355932-57.795254a62.568136 62.568136 0 0 1 89.816949 0q16.574915 18.223729 16.574916 56.40678t-17.355933 58.576271z" /></svg>