<?xml version="1.0" standalone="no"?><!DOCTYPE svg PUBLIC "-//W3C//DTD SVG 1.1//EN" "http://www.w3.org/Graphics/SVG/1.1/DTD/svg11.dtd"><svg class="icon" width="200px" height="200.00px" viewBox="0 0 1024 1024" version="1.1" xmlns="http://www.w3.org/2000/svg"><path fill="#0efcff" d="M39.873991 511.431111h473.315556l11.377777-0.568889c111.502222-5.688889 197.404444-97.848889 193.422223-205.937778-3.982222-108.657778-96.711111-193.422222-208.782223-191.715555-111.502222 2.275556-200.817778 91.022222-200.817777 199.68 0 13.084444 7.395556 25.6 19.342222 32.426667 11.946667 6.826667 26.737778 6.826667 38.684444 0 11.377778-6.826667 18.773333-19.342222 18.773334-32.426667 0-68.835556 57.457778-124.586667 128-124.586667s128 55.751111 128 124.586667-57.457778 124.586667-128 124.586667H34.753991c-20.48 2.844444-34.702222 19.911111-33.564444 39.253333 1.706667 19.911111 18.204444 34.702222 38.684444 34.702222z"  /><path fill="#0efcff" d="M871.589547 412.444444c-81.351111 0-148.48 61.44-153.6 139.946667-1.137778 19.342222 13.653333 36.977778 33.564444 39.253333 19.911111 2.275556 38.684444-10.24 42.666667-29.582222l1.137778-11.946666c6.257778-38.115556 41.528889-65.991111 81.351111-63.146667 39.822222 2.844444 71.111111 34.702222 71.68 73.386667 0.568889 38.684444-29.582222 71.68-69.404445 75.662222l-10.24 0.568889-2.844444 0.568889h-178.062222c-3.413333 0-6.257778-0.568889-9.671112-0.568889l-5.12 0.568889H38.736213l-5.12 0.568888a38.115556 38.115556 0 0 0-33.564444 39.822223c1.137778 19.911111 18.204444 34.702222 38.684444 34.702222l639.431111-0.568889c35.84 0 65.422222 27.875556 65.422223 62.008889 0 35.84-25.6 62.577778-60.302223 62.577778-37.546667 0-55.182222-16.497778-60.871111-44.942223a37.262222 37.262222 0 0 0-25.031111-29.013333c-13.084444-4.551111-27.875556-1.706667-38.115555 7.395556s-14.791111 22.755556-11.946667 36.408889c12.515556 60.871111 59.164444 104.675556 136.533333 104.675555a135.395556 135.395556 0 0 0 137.102223-137.102222c0-22.186667-5.688889-43.235556-15.36-62.008889h59.733333l5.12-0.568889h10.808889c82.488889-5.688889 145.635556-73.386667 143.36-153.6s-70.542222-144.497778-153.031111-145.066667z"  /></svg>