<?xml version="1.0" standalone="no"?><!DOCTYPE svg PUBLIC "-//W3C//DTD SVG 1.1//EN" "http://www.w3.org/Graphics/SVG/1.1/DTD/svg11.dtd"><svg class="icon" width="200px" height="200.00px" viewBox="0 0 1024 1024" version="1.1" xmlns="http://www.w3.org/2000/svg"><path fill="#0efcff" d="M734.4 528.1c0-59.2-23.1-114.9-64.9-156.8-41.9-41.9-97.5-64.9-156.8-64.9s-114.9 23.1-156.8 64.9S291 468.9 291 528.1c0 59.2 23.1 114.9 64.9 156.8 41.9 41.9 97.5 64.9 156.8 64.9s114.9-23.1 156.8-64.9c41.8-41.9 64.9-97.6 64.9-156.8zM512.7 679.8C429 679.8 361 611.7 361 528.1s68.1-151.7 151.7-151.7 151.7 68.1 151.7 151.7-68.1 151.7-151.7 151.7zM897 528.1c-18.1 0-33.2 13.7-34.9 31.7C847 728 712.6 862.4 544.4 877.6c-18 1.6-31.7 16.8-31.7 34.8 0 20.6 17.7 36.7 38.3 34.9 43.3-3.9 85.4-14.4 125.6-31.4 50.1-21.2 95.1-51.5 133.8-90.2 38.6-38.6 69-83.7 90.2-133.8 17-40.2 27.5-82.3 31.4-125.6 1.7-20.5-14.4-38.2-35-38.2zM514.1 225.4h7c19.3 0 35-15.7 35-35v-85c0-19.3-15.7-35-35-35h-7c-19.3 0-35 15.7-35 35v85c0 19.3 15.7 35 35 35zM251 315.4c13.7 13.7 35.8 13.7 49.5 0l5-5c13.7-13.7 13.7-35.8 0-49.5l-60.1-60.1c-13.7-13.7-35.8-13.7-49.5 0l-5 5c-13.7 13.7-13.7 35.8 0 49.5l60.1 60.1zM213 530.1v-7c0-19.3-15.7-35-35-35H93c-19.3 0-35 15.7-35 35v7c0 19.3 15.7 35 35 35h85c19.3 0 35-15.7 35-35zM298 738.8c-13.7-13.7-35.8-13.7-49.5 0l-60.1 60.1c-13.7 13.7-13.7 35.8 0 49.5l5 5c13.7 13.7 35.8 13.7 49.5 0l60.1-60.1c13.7-13.7 13.7-35.8 0-49.5l-5-5zM733.8 317.8c13.7 13.7 35.8 13.7 49.5 0l60.1-60.1c13.7-13.7 13.7-35.8 0-49.5l-5-5c-13.7-13.7-35.8-13.7-49.5 0l-60.1 60.1c-13.7 13.7-13.7 35.8 0 49.5l5 5z" /></svg>