<?xml version="1.0" standalone="no"?><!DOCTYPE svg PUBLIC "-//W3C//DTD SVG 1.1//EN" "http://www.w3.org/Graphics/SVG/1.1/DTD/svg11.dtd"><svg class="icon" width="200px" height="200.00px" viewBox="0 0 1024 1024" version="1.1" xmlns="http://www.w3.org/2000/svg"><path fill="#0efcff" d="M515.2 832.9c-38.6 22.8-85.5 35.2-135.1 35.2-61.2 0-118.3-18.8-160.9-53-39.7-31.9-61.5-73.3-61.5-116.8 0-9.3 3.7-39.3 37.8-115.2 21.6-48.1 51.9-107 90-175 34.5-61.6 69.4-119.7 94.6-160.9 25.2 41.1 59.9 99 94.4 160.6 18.9 33.7 35.9 65.3 50.9 94.3 10.9-21.3 23.6-44.9 38.4-71.2 4.5-8 8.9-15.8 13.3-23.5-7.7-14.1-15.7-28.7-24-43.6-66.7-119-134.4-224.8-135-225.9l-37.9-59.2-37.9 59.2c-0.7 1.1-68.3 106.9-135 225.9-39.5 70.4-71 131.7-93.7 182.4-31.2 69.5-45.7 117.9-45.7 152.3 0 36.4 8.8 71.6 26.2 104.6 16.4 31.1 39.5 58.8 68.9 82.4 58.5 47 135.6 72.8 217.3 72.8 77.9 0 151.7-23.5 209.1-66.5-14.6-7.9-28.5-17-41.4-27.4-12.2-9.9-23.1-20.3-32.8-31.5zM871.6 468.1c-41.6-74.2-82.5-138.3-84.3-140.9l-34.2-53.5-34.2 53.5c-1.7 2.7-42.6 66.7-84.3 140.9-79.1 141.1-88.2 189.7-88.2 214 0 24.7 6 48.5 17.7 70.9 11 20.8 26.5 39.4 46.1 55.2 38.6 31 89.3 48 142.9 48s104.3-17.1 142.9-48c19.6-15.8 35.1-34.3 46.1-55.2 11.8-22.3 17.7-46.2 17.7-70.9 0.1-24.3-9.1-73-88.2-214z m-26.5 276.7c-24.2 19.4-56.8 30.1-92 30.1s-67.8-10.7-92-30.1c-21.6-17.3-33.4-39.6-33.4-62.6 0-5.9 3.7-42.1 77.7-174 16.8-30 33.7-58.5 47.7-81.8 14.1 23.3 31 51.9 47.7 81.8 73.9 131.9 77.7 168.1 77.7 174 0 23-11.8 45.2-33.4 62.6zM309.9 665.6l-79.5-8.7c-0.6 5.9-5.2 58.4 31.2 100.7 25.3 29.4 62.6 45.4 110.7 47.3l3.2-79.9c-24.8-1-42.6-7.4-52.9-19.2-14.5-16.4-12.6-40.5-12.6-40.8-0.1 0.5-0.1 0.6-0.1 0.6z" /></svg>