<?xml version="1.0" standalone="no"?><!DOCTYPE svg PUBLIC "-//W3C//DTD SVG 1.1//EN" "http://www.w3.org/Graphics/SVG/1.1/DTD/svg11.dtd"><svg class="icon" width="200px" height="200.00px" viewBox="0 0 1024 1024" version="1.1" xmlns="http://www.w3.org/2000/svg"><path fill="#0efcff" d="M772.338983 138.847458a251.661017 251.661017 0 0 0-37.402034 2.776949A321.084746 321.084746 0 0 0 156.20339 247.842712 199.59322 199.59322 0 0 0 0 442.576271a199.59322 199.59322 0 0 0 199.59322 199.593221h572.745763a251.661017 251.661017 0 0 0 0-503.322034z m0 433.898305H199.59322a130.169492 130.169492 0 0 1-28.463728-257.214916 69.423729 69.423729 0 0 0 52.501694-52.067796 251.661017 251.661017 0 0 1 453.770848-82.961356 69.423729 69.423729 0 0 0 67.774915 29.765424A190.915254 190.915254 0 0 1 772.338983 208.271186a182.237288 182.237288 0 1 1 0 364.474577zM112.813559 694.237288h69.423729v190.915254h-69.423729zM295.050847 754.983051h69.423729v190.915254h-69.423729zM477.288136 833.084746h69.423728v190.915254h-69.423728zM659.525424 763.661017h69.423729v190.915254h-69.423729zM841.762712 694.237288h69.423729v190.915254h-69.423729zM489.524068 164.881356a175.815593 175.815593 0 0 0-134.942373 65.258305L332.8 208.271186h-60.745763l76.192543 76.192543 15.18644 15.27322A134.248136 134.248136 0 0 1 489.524068 208.271186a130.169492 130.169492 0 0 1 0 261.12 129.214915 129.214915 0 0 1-128.433899-110.904406l-43.38983-43.389831a89.64339 89.64339 0 0 0-2.169492 23.951187A174.08 174.08 0 1 0 489.524068 164.881356zM467.742373 251.921356v108.821695l56.580339 56.580339 30.459661-30.459661-43.56339-43.56339V251.921356H467.742373z" /></svg>