<?xml version="1.0" standalone="no"?><!DOCTYPE svg PUBLIC "-//W3C//DTD SVG 1.1//EN" "http://www.w3.org/Graphics/SVG/1.1/DTD/svg11.dtd"><svg class="icon" width="200px" height="200.00px" viewBox="0 0 1024 1024" version="1.1" xmlns="http://www.w3.org/2000/svg"><path fill="#0efcff" d="M447.8 385c-50-121.8-100.6-231.5-101.1-232.6L305.9 64 265 152.4c-0.5 1.1-51.2 110.8-101.1 232.6-29.5 71.9-53.1 134-70 184.6-23 68.6-33.7 114.9-33.7 145.7 0 65.3 25.6 126.7 72.1 172.8 46.4 46 108 71.4 173.6 71.4s127.2-25.4 173.6-71.4c46.5-46.1 72.1-107.5 72.1-172.8 0-30.8-10.7-77.1-33.7-145.7-17.1-50.6-40.6-112.7-70.1-184.6z m-142 484.5c-85.8 0-155.6-69.2-155.6-154.2 0-18 9.4-82.8 96.8-295.9 20.7-50.5 41.6-98.9 58.8-138.2 17.2 39.1 38 87.4 58.7 137.9 87.5 213.3 97 278.2 97 296.2 0 85.1-69.9 154.2-155.7 154.2zM343.6 700.5c-12.7 20.7-25.4 32.6-35.9 32.7h-0.2c-9.6 0-22.6-9.1-35.7-25.1-2.7-3.4-5.3-6.7-7.6-10-8.9-12.6-24.8-16.6-37.8-9.2l-4.8 2.7c-16.3 9.2-21.1 31.9-10.1 47.8 19.5 28 52.9 63.9 95.9 63.9h0.7c33.8-0.3 63.9-22 89.9-64.6 9.8-16.1 4.5-37.9-11.5-46.5l-4.8-2.6c-13.3-7.4-29.8-2.7-38.1 10.9zM904.8 662V190.1c0-65.9-53.6-119.6-119.6-119.6s-119.6 53.6-119.6 119.6V662c-33.7 32.4-53.3 77.5-53.3 124.7 0 95.3 77.5 172.8 172.8 172.8S958 882 958 786.7c0-47.2-19.5-92.3-53.2-124.7zM785.2 869.5c-45.7 0-82.8-37.1-82.8-82.8 0-26.6 12.9-51.7 34.5-67.3l18.7-13.5V190.1c0-16.3 13.3-29.6 29.6-29.6s29.6 13.3 29.6 29.6V706l18.7 13.5c21.6 15.6 34.5 40.7 34.5 67.3 0 45.6-37.1 82.7-82.8 82.7zM620 122.5c0-24.9-20.1-45-45-45H474.5c-24.9 0-45 20.1-45 45s20.1 45 45 45H575c24.8 0 45-20.1 45-45zM558.7 237.8h-2.9c-24.9 0-45 20.1-45 45s20.1 45 45 45h2.9c24.9 0 45-20.1 45-45 0-24.8-20.1-45-45-45z" /></svg>