<?xml version="1.0" standalone="no"?><!DOCTYPE svg PUBLIC "-//W3C//DTD SVG 1.1//EN" "http://www.w3.org/Graphics/SVG/1.1/DTD/svg11.dtd"><svg class="icon" width="200px" height="198.64px" viewBox="0 0 1031 1024" version="1.1" xmlns="http://www.w3.org/2000/svg"><path fill="#0efcff" d="M960 567.466667s-102.4 64-226.133333 64c-59.733333 0-115.2-21.333333-179.2-46.933334-64-25.6-140.8-55.466667-230.4-59.733333-183.466667-12.8-298.666667 89.6-302.933334 93.866667-17.066667 17.066667-17.066667 42.666667-4.266666 59.733333 17.066667 17.066667 42.666667 17.066667 59.733333 4.266667 0 0 93.866667-81.066667 243.2-72.533334 76.8 4.266667 145.066667 29.866667 204.8 55.466667 68.266667 25.6 136.533333 51.2 213.333333 51.2 149.333333 0 268.8-72.533333 273.066667-76.8 21.333333-12.8 25.6-38.4 12.8-59.733333-17.066667-17.066667-46.933333-25.6-64-12.8zM247.466667 482.133333c59.733333 0 106.666667-46.933333 106.666666-106.666666S307.2 268.8 247.466667 268.8 140.8 315.733333 140.8 375.466667s46.933333 106.666667 106.666667 106.666666z m0-149.333333c25.6 0 42.666667 17.066667 42.666666 42.666667s-17.066667 42.666667-42.666666 42.666666-42.666667-17.066667-42.666667-42.666666 21.333333-42.666667 42.666667-42.666667zM72.533333 290.133333c42.666667 0 76.8-34.133333 76.8-76.8s-34.133333-72.533333-76.8-72.533333C34.133333 140.8 0 174.933333 0 213.333333c0 42.666667 34.133333 76.8 72.533333 76.8z m0-106.666666c17.066667 0 34.133333 12.8 34.133334 29.866666 0 17.066667-12.8 34.133333-34.133334 34.133334-17.066667 0-29.866667-17.066667-29.866666-34.133334s12.8-29.866667 29.866666-29.866666zM375.466667 226.133333c51.2 0 89.6-42.666667 89.6-93.866666S426.666667 42.666667 375.466667 42.666667 285.866667 85.333333 285.866667 132.266667s38.4 93.866667 89.6 93.866666z m0-119.466666c17.066667 0 25.6 12.8 25.6 25.6s-8.533333 29.866667-25.6 29.866666-25.6-12.8-25.6-29.866666 12.8-25.6 25.6-25.6zM546.133333 473.6c42.666667 0 76.8-34.133333 76.8-76.8s-34.133333-76.8-76.8-76.8-72.533333 34.133333-72.533333 76.8 29.866667 76.8 72.533333 76.8z m0-106.666667c17.066667 0 34.133333 12.8 34.133334 34.133334s-12.8 34.133333-34.133334 34.133333c-17.066667 0-29.866667-12.8-29.866666-34.133333s12.8-34.133333 29.866666-34.133334zM699.733333 290.133333c51.2 0 93.866667-42.666667 93.866667-93.866666s-42.666667-93.866667-93.866667-93.866667-98.133333 42.666667-98.133333 93.866667 46.933333 93.866667 98.133333 93.866666z m0-128c17.066667 0 34.133333 12.8 34.133334 34.133334s-12.8 34.133333-34.133334 34.133333c-17.066667 0-34.133333-12.8-34.133333-34.133333s17.066667-34.133333 34.133333-34.133334z"  /><path fill="#0efcff" d="M682.666667 490.666667c0 51.2 42.666667 93.866667 98.133333 93.866666s93.866667-42.666667 93.866667-93.866666-42.666667-93.866667-93.866667-93.866667-98.133333 38.4-98.133333 93.866667z m128 0c0 17.066667-12.8 34.133333-34.133334 34.133333s-34.133333-12.8-34.133333-34.133333 12.8-34.133333 34.133333-34.133334 34.133333 17.066667 34.133334 34.133334zM960 337.066667c34.133333 0 64-29.866667 64-64s-29.866667-64-64-64-64 29.866667-64 64 29.866667 64 64 64z m0-85.333334c12.8 0 21.333333 8.533333 21.333333 21.333334s-8.533333 21.333333-21.333333 21.333333-21.333333-8.533333-21.333333-21.333333 8.533333-21.333333 21.333333-21.333334zM209.066667 725.333333H136.533333c-17.066667 0-34.133333 12.8-34.133333 34.133334v192c0 17.066667 12.8 34.133333 34.133333 34.133333s34.133333-12.8 34.133334-34.133333V896h42.666666c46.933333 0 85.333333-38.4 85.333334-85.333333s-42.666667-85.333333-89.6-85.333334z m0 102.4h-42.666667v-38.4h42.666667c12.8 0 21.333333 8.533333 21.333333 21.333334s-8.533333 17.066667-21.333333 17.066666zM512 725.333333c-12.8-4.266667-25.6 4.266667-34.133333 17.066667l-42.666667 89.6-42.666667-89.6c-4.266667-12.8-17.066667-17.066667-29.866666-17.066667-12.8 0-25.6 12.8-25.6 25.6L298.666667 942.933333c-4.266667 17.066667 8.533333 34.133333 25.6 38.4 17.066667 4.266667 34.133333-8.533333 38.4-25.6l17.066666-93.866666 29.866667 59.733333c8.533333 21.333333 46.933333 21.333333 59.733333 0l29.866667-59.733333 17.066667 93.866666c4.266667 17.066667 17.066667 25.6 29.866666 25.6h4.266667c17.066667-4.266667 29.866667-21.333333 25.6-38.4l-34.133333-192c-4.266667-12.8-17.066667-21.333333-29.866667-25.6zM836.266667 725.333333c-46.933333 0-85.333333 38.4-85.333334 85.333334v85.333333c0 46.933333 38.4 85.333333 85.333334 85.333333s85.333333-38.4 85.333333-85.333333v-85.333333c0-46.933333-38.4-85.333333-85.333333-85.333334z m21.333333 170.666667c0 12.8-8.533333 21.333333-21.333333 21.333333s-21.333333-8.533333-21.333334-21.333333v-85.333333c0-12.8 8.533333-21.333333 21.333334-21.333334s21.333333 8.533333 21.333333 21.333334v85.333333zM699.733333 729.6c-12.8-4.266667-25.6-4.266667-34.133333 4.266667l-64 59.733333c-12.8 12.8-12.8 34.133333 0 46.933333 12.8 12.8 34.133333 12.8 46.933333 0l8.533334-8.533333v119.466667c0 17.066667 12.8 34.133333 34.133333 34.133333 17.066667 0 34.133333-12.8 34.133333-34.133333v-192c-8.533333-12.8-17.066667-25.6-25.6-29.866667z"  /></svg>