<?xml version="1.0" standalone="no"?><!DOCTYPE svg PUBLIC "-//W3C//DTD SVG 1.1//EN" "http://www.w3.org/Graphics/SVG/1.1/DTD/svg11.dtd"><svg class="icon" width="200px" height="200.00px" viewBox="0 0 1024 1024" version="1.1" xmlns="http://www.w3.org/2000/svg"><path fill="#0efcff" d="M772.338983 138.847458a251.661017 251.661017 0 0 0-37.402034 2.776949A321.084746 321.084746 0 0 0 156.20339 247.842712 199.59322 199.59322 0 0 0 0 442.576271a199.59322 199.59322 0 0 0 199.59322 199.593221h572.745763a251.661017 251.661017 0 0 0 0-503.322034z m0 433.898305H199.59322a130.169492 130.169492 0 0 1-28.463728-257.214916 69.423729 69.423729 0 0 0 52.501694-52.067796 251.661017 251.661017 0 0 1 453.770848-82.961356 69.423729 69.423729 0 0 0 67.774915 29.765424A190.915254 190.915254 0 0 1 772.338983 208.271186a182.237288 182.237288 0 1 1 0 364.474577zM112.813559 694.237288h69.423729v190.915254h-69.423729zM295.050847 754.983051h69.423729v190.915254h-69.423729zM477.288136 833.084746h69.423728v190.915254h-69.423728zM659.525424 763.661017h69.423729v190.915254h-69.423729zM841.762712 694.237288h69.423729v190.915254h-69.423729zM238.644068 328.721356v41.307119l42.782373-37.228475V501.586441h38.35661V291.492881h-38.35661l-42.782373 37.228475zM538.033898 346.077288a58.663051 58.663051 0 0 0-46.08 19.525424A47.642034 47.642034 0 0 0 451.254237 346.077288a53.890169 53.890169 0 0 0-38.35661 15.967458v-14.145085h-37.662373V501.586441h38.35661V408.645424a24.992542 24.992542 0 0 1 26.033899-28.029831c12.062373 0 25.339661 7.115932 25.339661 28.029831V501.586441H503.322034V407.864407a24.818983 24.818983 0 0 1 26.033898-27.162034c12.149153 0 25.426441 7.115932 25.426441 28.02983v92.854238h38.26983V403.351864a58.142373 58.142373 0 0 0-16.748474-43.38983 53.629831 53.629831 0 0 0-38.269831-13.884746zM618.391864 290.364746h39.224407v31.240678h-39.224407zM618.999322 347.899661h38.35661V501.586441h-38.35661zM761.144407 346.077288a52.848814 52.848814 0 0 0-38.35661 15.967458v-14.145085H685.559322V501.586441h38.183051V408.645424c0-20.913898 13.537627-28.029831 25.6-28.029831s25.426441 7.115932 25.426441 28.029831V501.586441h38.35661V403.351864a57.187797 57.187797 0 0 0-15.620339-43.38983 49.985085 49.985085 0 0 0-36.360678-13.884746z" /></svg>