<?xml version="1.0" standalone="no"?><!DOCTYPE svg PUBLIC "-//W3C//DTD SVG 1.1//EN" "http://www.w3.org/Graphics/SVG/1.1/DTD/svg11.dtd"><svg class="icon" width="200px" height="200.00px" viewBox="0 0 1024 1024" version="1.1" xmlns="http://www.w3.org/2000/svg"><path fill="#0efcff" d="M545.6 131.6l-36.5-50.7-36.5 50.7c-2.7 3.7-65.7 91.4-129.8 197.9-90.3 150-134.2 255.6-134.2 322.6 0 79.5 31.3 154.3 88.2 210.5 56.7 56 132.1 86.9 212.3 86.9 80.2 0 155.5-30.9 212.3-86.9 56.9-56.2 88.2-130.9 88.2-210.5 0-67-43.9-172.5-134.2-322.6C611.3 223 548.3 135.3 545.6 131.6z m-36.5 727.9c-116.1 0-210.5-93-210.5-207.4 0-27.8 15.7-100.7 121-275.7 32.6-54.2 65.5-104.2 89.5-139.6 23.9 35.3 56.6 85 89.2 139.1 105.5 175.4 121.3 248.3 121.3 276.2 0 114.4-94.4 207.4-210.5 207.4zM430.5 109h-366v90h307.7c20.6-32.7 40.5-63.2 58.3-90zM587.7 109c17.8 26.8 37.7 57.3 58.4 90h313.4v-90H587.7zM218.6 468.4c14.5-29.6 30.3-59.8 47-90H66v90h152.6zM799.6 468.4h159.8v-90H752.7c16.6 30.2 32.4 60.4 46.9 90zM64.5 647.8v90h78.8c-1-10.8-1.5-21.8-1.5-32.8 0-17 2.6-36.2 7.5-57.2H64.5zM876.4 705c0 11.1-0.5 22-1.5 32.8h75.3v-90h-81.3c4.8 21 7.5 40.2 7.5 57.2zM536.1 737.7c-1.1-8.5-8.2-15-16.8-15.6-16.5-1.1-36.8-8.9-56.7-38-9.7-14.1-16.2-29.2-20.2-39.9-3.2-8.5-12.2-13.3-21-11.2l-38.3 9.2c-10.3 2.5-16.2 13.4-12.7 23.4 5.3 15.1 14.5 37 28.9 58.7 15.5 23.2 33.8 41.2 54.4 53.6 21.5 12.9 45 19.3 70 19.3h0.2c10.7 0 18.8-9.5 17.4-20.1l-5.2-39.4z" /></svg>