<?xml version="1.0" standalone="no"?><!DOCTYPE svg PUBLIC "-//W3C//DTD SVG 1.1//EN" "http://www.w3.org/Graphics/SVG/1.1/DTD/svg11.dtd"><svg class="icon" width="200px" height="200.00px" viewBox="0 0 1024 1024" version="1.1" xmlns="http://www.w3.org/2000/svg"><path fill="#0efcff" d="M456 337.6v51.2H254.4v99.2h188.8v51.2H254.4v108.8H464v51.2H195.2V337.6h260.8zM780.8 363.2c25.6 20.8 41.6 51.2 48 86.4h-57.6c-6.4-24-17.6-41.6-33.6-51.2-16-11.2-36.8-16-62.4-16-38.4 0-65.6 12.8-84.8 38.4-17.6 24-25.6 56-25.6 97.6 0 43.2 8 75.2 25.6 97.6 19.2 24 48 36.8 88 36.8 25.6 0 46.4-6.4 62.4-19.2 17.6-14.4 28.8-33.6 36.8-60.8h57.6c-8 43.2-27.2 75.2-56 99.2-27.2 22.4-60.8 33.6-99.2 33.6-60.8 0-105.6-19.2-134.4-56-25.6-32-38.4-75.2-38.4-129.6 0-52.8 12.8-97.6 40-131.2 30.4-38.4 73.6-57.6 131.2-57.6 40-1.6 75.2 9.6 102.4 32zM59.2 808h912v59.2h-912zM59.2 168h912v59.2h-912zM59.2 648h102.4v59.2H59.2zM868.8 648h102.4v59.2h-102.4zM59.2 488h102.4v59.2H59.2zM868.8 488h102.4v59.2h-102.4zM59.2 328h102.4v59.2H59.2zM868.8 328h102.4v59.2h-102.4z" /></svg>