<?xml version="1.0" standalone="no"?><!DOCTYPE svg PUBLIC "-//W3C//DTD SVG 1.1//EN" "http://www.w3.org/Graphics/SVG/1.1/DTD/svg11.dtd"><svg class="icon" width="200px" height="175.79px" viewBox="0 0 1165 1024" version="1.1" xmlns="http://www.w3.org/2000/svg"><path fill="#0efcff" d="M242.009588 71.506552h327.261106a32.726111 32.726111 0 0 0 0-65.452222h-327.261106a32.726111 32.726111 0 0 0 0 65.452222zM134.340684 35.344199m-35.3442 0a35.344199 35.344199 0 1 0 70.688399 0 35.344199 35.344199 0 1 0-70.688399 0ZM32.726111 318.752317h327.261105a32.726111 32.726111 0 0 0 0-65.452221H32.726111a32.726111 32.726111 0 0 0 0 65.452221zM523.617769 282.426334a35.344199 35.344199 0 1 0-35.344199 35.3442A35.344199 35.344199 0 0 0 523.617769 282.426334zM580.07031 286.026206a32.726111 32.726111 0 0 0 32.726111 32.726111h327.261105a32.726111 32.726111 0 0 0 0-65.452221h-327.261105a32.726111 32.726111 0 0 0-32.726111 32.72611zM654.522212 520.83605a35.344199 35.344199 0 1 0 35.344199-35.3442A35.344199 35.344199 0 0 0 654.522212 520.83605zM1132.814318 488.109939h-327.261106a32.726111 32.726111 0 1 0 0 65.452221h327.261106a32.726111 32.726111 0 0 0 0-65.452221zM769.063599 952.493448H441.802493a32.726111 32.726111 0 0 0 0 65.452222h327.261106a32.726111 32.726111 0 0 0 0-65.452222zM875.91435 988.655801m-35.3442 0a35.344199 35.344199 0 1 0 70.688399 0 35.344199 35.344199 0 1 0-70.688399 0ZM944.966443 722.919783h-327.261106a32.726111 32.726111 0 0 0 0 65.452221h327.261106a32.726111 32.726111 0 0 0 0-65.452221zM453.420262 759.082135a35.344199 35.344199 0 1 0 35.344199-35.180569 35.344199 35.344199 0 0 0-35.344199 35.180569zM1052.471716 759.082135m-35.344199 0a35.344199 35.344199 0 1 0 70.688399 0 35.344199 35.344199 0 1 0-70.688399 0ZM364.896133 722.919783h-327.261106a32.726111 32.726111 0 1 0 0 65.452221h327.261106a32.726111 32.726111 0 1 0 0-65.452221zM134.340684 520.83605m-35.3442 0a35.344199 35.344199 0 1 0 70.688399 0 35.344199 35.344199 0 1 0-70.688399 0ZM606.905721 520.83605a32.726111 32.726111 0 0 0-32.726111-32.726111h-327.261106a32.726111 32.726111 0 0 0 0 65.452221h327.261106a32.726111 32.726111 0 0 0 32.726111-32.72611z" /></svg>