<?xml version="1.0" standalone="no"?><!DOCTYPE svg PUBLIC "-//W3C//DTD SVG 1.1//EN" "http://www.w3.org/Graphics/SVG/1.1/DTD/svg11.dtd"><svg class="icon" width="200px" height="200.00px" viewBox="0 0 1024 1024" version="1.1" xmlns="http://www.w3.org/2000/svg"><path fill="#0efcff" d="M515.133134 709.616716l0.917015-0.458507a2.598209 2.598209 0 0 0 1.146269-0.458508l3.515224-0.687761a258.674627 258.674627 0 0 0 60.217313-13.678806 505.04597 505.04597 0 0 1 135.718209 22.925373c150.084776 38.667463 157.344478-64.573134 271.589254-28.656716l28.351045 11.844776 7.412537 2.598209s-6.113433 12.379701-9.322985 18.416717L1008.716418 732.083582l-5.807761 10.163582c-2.139701 3.515224-4.126567 6.95403-6.419105 10.545672s-4.890746 7.641791-7.641791 11.386268l-10.316418 15.283583c-2.292537 3.362388-4.814328 6.95403-7.641791 10.24s-4.73791 6.57194-7.641791 9.628656-5.12 6.57194-7.641791 9.857911-4.585075 5.884179-7.030448 8.864477c-4.432239 5.425672-9.017313 10.774925-13.678806 15.971344l-7.641791 7.641791-9.017313 9.322985c-2.598209 2.827463-5.196418 5.425672-7.641791 7.641791-4.050149 3.973731-7.641791 7.641791-11.997612 11.462686l-9.85791 9.017314q-5.884179 5.272836-11.921195 10.316418c-2.827463 2.292537-5.349254 4.355821-8.100298 6.724776l-11.69194 9.322985c-2.598209 1.83403-4.890746 3.897313-7.641791 5.654925-5.960597 4.432239-11.997612 8.711642-18.034627 12.914627l-7.641791 4.967164c-4.355821 2.980299-8.78806 5.807761-13.296717 8.635224-2.674627 1.45194-5.196418 3.28597-7.641791 4.814329l-18.26388 10.545671-5.884179 3.209552c-5.807761 3.133134-11.69194 6.037015-17.728956 9.093732-2.521791 1.146269-5.043582 2.521791-7.641791 3.668059-7.641791 3.515224-15.283582 6.95403-22.925373 10.24-9.475821 3.973731-19.104478 7.641791-28.809552 11.233433-5.807761 2.063284-11.69194 4.050149-17.576119 5.960597l-7.641792 2.368956c-7.641791 2.292537-15.74209 4.508657-23.76597 6.724776h-1.45194c-7.641791 1.910448-15.283582 3.744478-23.383881 5.425671-2.521791 0.458507-4.814328 0.764179-7.641791 1.375523-6.57194 1.222687-13.067463 2.445373-19.715821 3.515224l-5.884179 0.840597c-8.329552 1.299104-16.81194 2.445373-25.21791 3.362388l-5.960597 0.458507c-6.801194 0.687761-13.52597 1.146269-20.48 1.604776 0 0-24.071642 0.917015-32.401194 0.917015-11.69194 0-48.448955-1.83403-55.097314-2.521791l-6.801194-0.611343c-8.40597-0.840597-16.81194-1.910448-25.141492-3.28597l-5.349254-0.917015c-6.801194-0.993433-13.449552-2.292537-20.09791-3.515224l-7.641791-1.528358c-6.724776-1.45194-13.373134-2.980299-19.945075-4.661493l-5.12-1.146269c-7.641791-2.139701-15.74209-4.355821-23.536716-6.724776l-7.641791-2.368955c-5.578507-1.757612-11.157015-3.591642-16.659105-5.578507a76.41791 76.41791 0 0 1-7.641791-2.903881c-7.030448-2.827463-14.060896-5.425672-21.091343-8.40597-1.986866-0.840597-4.050149-1.604776-5.960597-2.598209-5.654925-2.521791-11.539104-5.12-17.19403-7.641791-3.056716-1.299104-5.884179-2.827463-8.78806-4.202985-4.661493-2.368955-9.322985-4.661493-13.831642-7.030448-2.903881-1.375522-5.578507-2.903881-8.329552-4.432239-6.419104-3.66806-12.838209-7.641791-19.257313-11.157015-2.980299-1.604776-5.731343-3.515224-8.635224-5.272835l-11.768358-7.641792c-3.209552-2.063284-6.419104-4.202985-9.475821-6.57194s-7.641791-5.12-11.004179-7.641791l-13.678806-10.316418c-3.820896-2.903881-7.641791-5.807761-11.386269-8.788059l-9.85791-8.329553-8.100299-6.95403q-5.043582-4.355821-9.85791-8.940895c-8.40597-7.641791-16.582687-15.818507-24.53015-24.14806-1.986866-2.063284-4.126567-4.202985-6.037015-6.495522-3.28597-3.591642-6.57194-7.183284-9.781492-10.851343l-5.425672-6.266269q-15.130746-18.034627-29.879403-38.514627l-4.050149-5.578507c-2.980299-4.355821-5.960597-8.711642-8.864478-13.143881-0.993433-1.45194-1.986866-3.209552-3.133134-4.814328-5.884179-9.322985-11.539104-18.64597-16.888358-27.892538-0.687761-0.993433-1.146269-2.139701-1.757612-3.133134-2.674627-4.661493-5.196418-9.552239-7.641791-14.366567-0.993433-2.063284-1.910448-4.050149-3.056717-5.960597v-17.117612c89.638209-30.108657 79.092537 21.167761 192.343881 30.567164 137.552239 11.997612 214.65791 9.093731 263.565373 1.604776 0 0 59.529552-15.283582 58.688955-15.283582a1.222687 1.222687 0 0 0 0.687762 0zM99.954627 603.701493a50.970746 50.970746 0 1 0 50.970746-50.894329A50.970746 50.970746 0 0 0 99.954627 603.701493zM849.002985 497.709851a67.935522 67.935522 0 1 0 68.01194-67.935523 67.935522 67.935522 0 0 0-67.935522 67.935523zM289.929552 41.036418c-31.331343 53.492537-80.46806 136.482388-80.468059 180.957612a80.46806 80.46806 0 1 0 160.936119 0c0-44.24597-51.276418-127.235821-80.46806-180.957612zM282.746269 539.204776a24.682985 24.682985 0 0 0 49.289552 0 176.907463 176.907463 0 0 0-24.606567-55.402985A162.235224 162.235224 0 0 0 282.746269 539.204776zM358.323582 415.178507a184.472836 184.472836 0 1 0 368.945672 0C727.269254 313.313433 609.28 123.185672 542.567164 0c-71.527164 123.032836-184.243582 313.313433-184.243582 415.178507z m158.949254 90.325971A116.231642 116.231642 0 0 1 466.149254 492.360597a91.701493 91.701493 0 0 1-51.2-62.815522c-9.246567-47.302687-0.611343-76.8 17.805373-98.349851s53.492537-7.641791 42.182686 17.652537a99.725373 99.725373 0 0 0 0 71.909254c19.639403 34.00597 60.140896 22.925373 65.031642 52.193433 0 0.993433 0 1.986866 0.534926 2.980298a26.517015 26.517015 0 0 1-23.231045 29.573732zM775.412537 82.149254c-15.283582 26.211343-39.431642 66.865672-39.431641 88.644776a39.431642 39.431642 0 0 0 78.786865 0c0-21.779104-25.21791-62.433433-39.355224-88.644776z" /></svg>