<?xml version="1.0" standalone="no"?><!DOCTYPE svg PUBLIC "-//W3C//DTD SVG 1.1//EN" "http://www.w3.org/Graphics/SVG/1.1/DTD/svg11.dtd"><svg class="icon" width="200px" height="200.00px" viewBox="0 0 1024 1024" version="1.1" xmlns="http://www.w3.org/2000/svg"><path fill="#0efcff" d="M515.133134 709.616716l0.917015-0.458507a3.973731 3.973731 0 0 0 1.146269-0.458508l3.515224-0.687761a262.57194 262.57194 0 0 0 60.217313-13.678806 505.04597 505.04597 0 0 1 135.718209 22.925373c150.084776 38.667463 157.344478-64.573134 271.589254-28.656716l28.351045 11.844776 7.412537 2.598209s-6.113433 12.379701-9.322985 18.416717l-5.960597 10.545671-5.807761 10.24c-2.139701 3.515224-4.126567 6.95403-6.419105 10.545672s-4.890746 7.641791-7.641791 11.386268l-10.316418 15.283583c-2.292537 3.362388-4.814328 6.95403-7.641791 10.24s-4.73791 6.57194-7.641791 9.628656-5.12 6.57194-7.641791 9.857911-4.585075 5.884179-7.030448 8.788059c-4.432239 5.50209-9.017313 10.774925-13.678806 16.047762l-7.641791 7.641791-9.017313 9.322985c-2.598209 2.827463-5.196418 5.425672-7.641791 7.641791-4.050149 3.973731-7.641791 7.641791-11.997612 11.462686l-9.85791 9.017314q-5.884179 5.272836-11.921195 10.316418c-2.827463 2.292537-5.349254 4.355821-8.100298 6.724776l-11.69194 9.322985c-2.598209 1.83403-4.890746 3.897313-7.641791 5.654925-5.960597 4.432239-11.997612 8.711642-18.034627 12.914627l-7.641791 4.967164c-4.355821 2.980299-8.78806 5.807761-13.296717 8.635224-2.674627 1.45194-5.196418 3.28597-7.641791 4.814329l-18.26388 10.545671-5.884179 3.209552c-5.807761 3.133134-11.69194 6.037015-17.728956 9.093732-2.521791 1.146269-5.043582 2.521791-7.641791 3.668059-7.641791 3.515224-15.283582 6.95403-22.925373 10.24-9.475821 3.897313-19.104478 7.641791-28.809552 11.157015-5.807761 2.139701-11.69194 4.126567-17.576119 6.037015l-7.641792 2.292538c-7.641791 2.368955-15.74209 4.585075-23.76597 6.801194h-1.45194c-7.641791 1.910448-15.283582 3.744478-23.383881 5.349253-2.521791 0.534925-4.814328 0.840597-7.641791 1.451941-6.57194 1.222687-13.067463 2.445373-19.715821 3.515224l-5.884179 0.840597c-8.329552 1.299104-16.81194 2.445373-25.21791 3.362388l-5.960597 0.458507c-6.801194 0.687761-13.52597 1.146269-20.48 1.604776h-7.641791c-20.021493 0.917015-40.042985 0.764179-60.064478 0q-9.934328-0.534925-19.945074-1.604776l-6.801194-0.611343c-8.40597-0.840597-16.81194-1.910448-25.141493-3.28597l-5.349254-0.917015c-6.801194-0.993433-13.449552-2.292537-20.09791-3.515224l-7.641791-1.604776q-10.087164-2.063284-19.945075-4.585075l-5.12-1.146269c-7.641791-2.139701-15.74209-4.355821-23.536716-6.724776l-7.641791-2.368955c-5.578507-1.757612-11.157015-3.66806-16.659105-5.578507a76.41791 76.41791 0 0 1-7.641791-2.903881c-7.030448-2.827463-14.060896-5.425672-21.091343-8.40597-1.986866-0.840597-4.050149-1.681194-5.960597-2.598209-5.654925-2.598209-11.539104-5.12-17.19403-7.641791-3.056716-1.299104-5.884179-2.827463-8.78806-4.202985-4.661493-2.368955-9.322985-4.661493-13.831641-7.030448-2.903881-1.375522-5.578507-2.903881-8.329553-4.432239-6.419104-3.66806-12.838209-7.641791-19.257313-11.157015-2.980299-1.604776-5.731343-3.515224-8.635224-5.349253l-11.768358-7.641791c-3.209552-1.986866-6.419104-4.202985-9.475821-6.495523s-7.641791-5.12-11.004179-7.641791l-13.678806-10.24-11.386269-8.864477-9.85791-8.253135-8.100299-6.95403q-5.043582-4.355821-9.85791-8.940895c-8.40597-7.641791-16.582687-15.818507-24.530149-24.14806-1.986866-2.063284-4.126567-4.202985-6.037015-6.495522-3.28597-3.591642-6.57194-7.183284-9.781493-10.927761l-5.425672-6.189851q-14.97791-18.111045-29.726567-38.591045l-4.050149-5.578507c-2.980299-4.279403-5.960597-8.635224-8.864478-13.067463-0.993433-1.45194-1.986866-3.209552-3.133134-4.814328-5.884179-9.399403-11.539104-18.722388-16.888358-27.968956-0.687761-0.993433-1.146269-2.139701-1.757612-3.133134-2.674627-4.661493-5.196418-9.552239-7.641791-14.366567-0.993433-2.063284-1.910448-4.050149-3.056717-5.960597v-17.19403c89.638209-30.032239 79.092537 21.244179 192.343881 30.567164 137.552239 11.997612 214.65791 9.093731 263.565373 1.604776 0 0 59.529552-15.283582 58.688955-15.283582a1.222687 1.222687 0 0 0 0.687762 0zM177.442388 650.545672a50.970746 50.970746 0 1 0 50.970746-50.970747 50.894328 50.894328 0 0 0-50.970746 50.970747zM856.644776 497.709851a67.935522 67.935522 0 1 0 68.01194-67.935523 67.935522 67.935522 0 0 0-67.935522 67.935523zM601.943881 625.098507a25.523582 25.523582 0 1 0 25.523582-25.523582 25.447164 25.447164 0 0 0-25.523582 25.523582zM383.694328 330.354627V205.18209a35.84 35.84 0 0 1 71.68 0v125.172537a104.692537 104.692537 0 0 1 71.68 99.343283 107.596418 107.596418 0 0 1-215.04 0 108.437015 108.437015 0 0 1 71.68-99.343283zM312.014328 290.38806V104.386866a107.596418 107.596418 0 0 1 215.04 0V290.38806a172.780896 172.780896 0 0 1 71.68 139.69194 179.2 179.2 0 0 1-358.4 0A173.162985 173.162985 0 0 1 312.014328 290.38806zM419.534328 569.695522a141.90806 141.90806 0 0 0 143.36-139.615522 137.552239 137.552239 0 0 0-71.68-120.511045V104.386866a71.68 71.68 0 0 0-143.36 0v205.029253a139.69194 139.69194 0 0 0-71.68 120.511045 142.060896 142.060896 0 0 0 143.436418 139.69194zM917.014925 272.124179a24.071642 24.071642 0 0 0-34.00597 0.534925 94.681791 94.681791 0 1 1-1.910448-133.960597 24.071642 24.071642 0 1 0 33.547463-34.464477 142.825075 142.825075 0 1 0 2.751045 201.896119 23.995224 23.995224 0 0 0-0.38209-34.00597zM672.477612 114.09194a45.850746 45.850746 0 1 1 45.850746-45.850746 45.850746 45.850746 0 0 1-45.239403 45.850746z m0-66.407164A20.785672 20.785672 0 1 0 693.874627 68.776119a20.785672 20.785672 0 0 0-20.785672-21.091343z" /></svg>